<svg xmlns="http://www.w3.org/2000/svg" xmlns:xlink="http://www.w3.org/1999/xlink" width="500" zoomAndPan="magnify" viewBox="0 0 375 374.999991" height="500" preserveAspectRatio="xMidYMid meet" version="1.0"><defs><clipPath id="460d01953c"><path d="M 50 165 L 196 165 L 196 370 L 50 370 Z M 50 165 " clip-rule="nonzero"/></clipPath><clipPath id="a07c752883"><path d="M 14.9375 178.914062 L 221.886719 118.386719 L 284.285156 331.734375 L 77.335938 392.261719 Z M 14.9375 178.914062 " clip-rule="nonzero"/></clipPath><clipPath id="a201e65cff"><path d="M 221.621094 118.464844 L 14.671875 178.992188 L 77.070312 392.339844 L 284.019531 331.8125 Z M 221.621094 118.464844 " clip-rule="nonzero"/></clipPath><clipPath id="4efc80d0fd"><path d="M 67 164 L 257 164 L 257 369 L 67 369 Z M 67 164 " clip-rule="nonzero"/></clipPath><clipPath id="cc9e168382"><path d="M 14.9375 178.914062 L 221.886719 118.386719 L 284.285156 331.734375 L 77.335938 392.261719 Z M 14.9375 178.914062 " clip-rule="nonzero"/></clipPath><clipPath id="eb4ebd961c"><path d="M 221.621094 118.464844 L 14.671875 178.992188 L 77.070312 392.339844 L 284.019531 331.8125 Z M 221.621094 118.464844 " clip-rule="nonzero"/></clipPath><clipPath id="b7172273c8"><path d="M 166 210 L 231 210 L 231 272 L 166 272 Z M 166 210 " clip-rule="nonzero"/></clipPath><clipPath id="e17972a067"><path d="M 14.9375 178.914062 L 221.886719 118.386719 L 284.285156 331.734375 L 77.335938 392.261719 Z M 14.9375 178.914062 " clip-rule="nonzero"/></clipPath><clipPath id="1757b3304d"><path d="M 221.621094 118.464844 L 14.671875 178.992188 L 77.070312 392.339844 L 284.019531 331.8125 Z M 221.621094 118.464844 " clip-rule="nonzero"/></clipPath></defs><path fill="#004225" d="M 255 6.625 C 262.542969 2.617188 270.667969 0.753906 279 5.4375 C 288.695312 10.886719 294.824219 23.730469 291.105469 34.625 C 288.917969 41.039062 283.925781 45.859375 279.109375 50.414062 C 267.273438 61.601562 255.296875 72.617188 243.246094 83.546875 C 235.640625 90.445312 226.765625 96.863281 219.117188 104.136719 C 208.566406 114.164062 202.777344 124.671875 219.871094 130.5625 C 241.855469 138.144531 263.761719 146.195312 286.265625 151.953125 C 300.710938 155.644531 321.988281 162.9375 312.597656 182.96875 C 305.296875 198.542969 290.261719 212.648438 273.644531 210.78125 C 249.957031 208.113281 231.648438 186.898438 211.097656 174.835938 C 195.214844 165.515625 177.960938 154.449219 173.269531 136.660156 C 168.839844 119.859375 177.425781 102.070312 189.355469 89.429688 C 201.285156 76.792969 216.441406 67.683594 229.425781 56.121094 C 242.410156 44.5625 254.949219 24.003906 255 6.628906 Z M 255 6.625 " fill-opacity="1" fill-rule="nonzero"/><path fill="#1f5a3b" d="M 261.71875 9.074219 C 271.414062 14.523438 277.542969 27.367188 273.824219 38.261719 C 271.636719 44.675781 266.644531 49.496094 261.828125 54.050781 C 249.996094 65.238281 238.015625 76.253906 225.964844 87.183594 C 218.359375 94.082031 209.484375 100.5 201.835938 107.773438 C 191.285156 117.800781 185.496094 128.308594 202.589844 134.203125 C 224.574219 141.78125 246.484375 149.832031 268.984375 155.589844 C 283.433594 159.28125 304.710938 166.574219 295.320312 186.605469 C 286.691406 205.015625 267.246094 221.375 247.164062 211.71875 C 223.4375 200.308594 200.140625 187.957031 176.886719 175.535156 C 165.71875 169.570312 154.519531 163.675781 143.308594 157.804688 C 133.917969 152.882812 122.511719 148.871094 114.554688 141.535156 C 112.570312 139.734375 110.78125 137.566406 109.960938 134.941406 C 106.511719 123.890625 126.183594 106.757812 132.683594 99.335938 C 151.53125 77.8125 172.59375 58.523438 194.882812 41.050781 C 205.382812 32.816406 216.277344 25.1875 226.992188 17.277344 C 237.253906 9.703125 249.253906 2.078125 261.714844 9.078125 Z M 261.71875 9.074219 " fill-opacity="1" fill-rule="nonzero"/><path fill="#d9fff1" d="M 138.226562 110.980469 C 132.988281 120.964844 133.179688 134.75 141.746094 142.089844 C 144.804688 144.710938 148.886719 146.339844 152.882812 145.785156 C 156.875 145.230469 160.597656 142.203125 161.292969 138.238281 C 162.28125 132.628906 157.457031 127.609375 156.886719 121.945312 C 156.320312 116.34375 160.0625 111.101562 164.625 107.796875 C 169.1875 104.492188 174.585938 102.570312 179.492188 99.796875 C 194.324219 91.421875 189.746094 67.839844 173.222656 77.125 C 166.796875 80.734375 160.820312 87.722656 155.035156 92.386719 C 148.488281 97.660156 142.183594 103.441406 138.230469 110.980469 Z M 138.226562 110.980469 " fill-opacity="1" fill-rule="nonzero"/><g clip-path="url(#460d01953c)"><g clip-path="url(#a07c752883)"><g clip-path="url(#a201e65cff)"><path fill="#602e17" d="M 80.933594 166.515625 C 72.570312 164.78125 64.25 165.277344 57.566406 172.113281 C 49.789062 180.0625 47.515625 194.113281 54.140625 203.523438 C 58.039062 209.0625 64.1875 212.292969 70.085938 215.308594 C 84.585938 222.726562 99.175781 229.9375 113.808594 237.042969 C 123.042969 241.53125 133.363281 245.195312 142.746094 250.03125 C 155.6875 256.695312 164.191406 265.15625 149.441406 275.609375 C 130.46875 289.054688 111.703125 302.933594 91.71875 314.773438 C 78.890625 322.375 60.515625 335.34375 75.152344 351.9375 C 86.53125 364.835938 104.925781 374.152344 120.347656 367.695312 C 142.335938 358.484375 153.949219 332.984375 170.289062 315.636719 C 182.917969 302.230469 196.371094 286.769531 195.878906 268.375 C 195.414062 251.007812 182.183594 236.347656 167.183594 227.5625 C 152.183594 218.78125 135.082031 214.292969 119.375 206.839844 C 103.667969 199.390625 85.859375 183.179688 80.9375 166.515625 Z M 80.933594 166.515625 " fill-opacity="1" fill-rule="nonzero"/></g></g></g><g clip-path="url(#4efc80d0fd)"><g clip-path="url(#cc9e168382)"><g clip-path="url(#eb4ebd961c)"><path fill="#c67e50" d="M 75.171875 170.753906 C 67.394531 178.703125 65.121094 192.75 71.746094 202.164062 C 75.644531 207.703125 81.792969 210.929688 87.691406 213.949219 C 102.191406 221.363281 116.78125 228.574219 131.414062 235.683594 C 140.652344 240.171875 150.96875 243.835938 160.351562 248.671875 C 173.296875 255.335938 181.800781 263.792969 167.050781 274.25 C 148.074219 287.695312 129.308594 301.570312 109.324219 313.414062 C 96.496094 321.015625 78.121094 333.984375 92.757812 350.578125 C 106.207031 365.824219 129.460938 376.066406 146.027344 361.164062 C 165.59375 343.550781 184.488281 325.15625 203.320312 306.707031 C 212.367188 297.847656 221.457031 289.042969 230.570312 280.261719 C 238.203125 272.898438 248.023438 265.851562 253.601562 256.578125 C 255 254.289062 256.109375 251.707031 256.164062 248.957031 C 256.371094 237.382812 232.679688 226.460938 224.359375 221.160156 C 200.226562 205.792969 174.59375 193.195312 148.296875 182.679688 C 135.910156 177.726562 123.3125 173.460938 110.804688 168.878906 C 98.832031 164.488281 85.171875 160.539062 75.175781 170.753906 Z M 75.171875 170.753906 " fill-opacity="1" fill-rule="nonzero"/></g></g></g><g clip-path="url(#b7172273c8)"><g clip-path="url(#e17972a067)"><g clip-path="url(#1757b3304d)"><path fill="#f4d4b7" d="M 222.304688 233.894531 C 230.136719 242.007812 233.820312 255.292969 227.660156 264.738281 C 225.460938 268.113281 222 270.824219 218.011719 271.414062 C 214.019531 272.003906 209.597656 270.140625 207.816406 266.53125 C 205.296875 261.421875 208.515625 255.253906 207.472656 249.652344 C 206.445312 244.121094 201.382812 240.140625 196.074219 238.246094 C 190.769531 236.355469 185.046875 236.027344 179.5625 234.746094 C 162.972656 230.867188 160.75 206.949219 179.214844 211.222656 C 186.394531 212.886719 194.089844 217.914062 200.953125 220.765625 C 208.71875 223.992188 216.394531 227.769531 222.300781 233.894531 Z M 222.304688 233.894531 " fill-opacity="1" fill-rule="nonzero"/></g></g></g></svg>